PathFileType	4	(X/Y/Z)	C:\Users\Basilio\Documents\Thesis Gigler\squatting_fais\c3dfiles\040\SLS_pre_back3\markers_experimental.trc
DataRate	CameraRate	NumFrames	NumMarkers	Units	OrigDataRate	OrigDataStartFrame	OrigNumFrames
200.000000	200.000000	4	63	mm	200.000000	881	1410
Frame#	Time	FHD			LBHD			RBHD			C7			T10			CLAV			LSHO			LUUPA			LMUPA			LDUPA			LLEP			LMEP			LRAD			LUL			LRFIN			RSHO			RUPA1			RMUPA			RDUPA			RLEP			RMEP			RRAD			RUL			RUFIN			LASI			RASI			USACR			LSACR			RSACR			LTHI1			LTHI2			LTHI3			LTHI4			LLFC			LMFC			LTIB1			LTIB2			LTIB3			LTIB4			LLMAL			LMMAL			LHEE			LMT1			LMT2			LMT5			RTHI			RTHI2			RTHI3			RTHI4			RLFC			RMFC			RTIB1			RTIB2			RTIB3			RTIB4			RLMAL			RMMAL			RHEE			RMT1			RMT2			RMT5			*61			*62			
		X1	Y1	Z1	X2	Y2	Z2	X3	Y3	Z3	X4	Y4	Z4	X5	Y5	Z5	X6	Y6	Z6	X7	Y7	Z7	X8	Y8	Z8	X9	Y9	Z9	X10	Y10	Z10	X11	Y11	Z11	X12	Y12	Z12	X13	Y13	Z13	X14	Y14	Z14	X15	Y15	Z15	X16	Y16	Z16	X17	Y17	Z17	X18	Y18	Z18	X19	Y19	Z19	X20	Y20	Z20	X21	Y21	Z21	X22	Y22	Z22	X23	Y23	Z23	X24	Y24	Z24	X25	Y25	Z25	X26	Y26	Z26	X27	Y27	Z27	X28	Y28	Z28	X29	Y29	Z29	X30	Y30	Z30	X31	Y31	Z31	X32	Y32	Z32	X33	Y33	Z33	X34	Y34	Z34	X35	Y35	Z35	X36	Y36	Z36	X37	Y37	Z37	X38	Y38	Z38	X39	Y39	Z39	X40	Y40	Z40	X41	Y41	Z41	X42	Y42	Z42	X43	Y43	Z43	X44	Y44	Z44	X45	Y45	Z45	X46	Y46	Z46	X47	Y47	Z47	X48	Y48	Z48	X49	Y49	Z49	X50	Y50	Z50	X51	Y51	Z51	X52	Y52	Z52	X53	Y53	Z53	X54	Y54	Z54	X55	Y55	Z55	X56	Y56	Z56	X57	Y57	Z57	X58	Y58	Z58	X59	Y59	Z59	X60	Y60	Z60	X61	Y61	Z61	X62	Y62	Z62	X63	Y63	Z63	

882	4.405	52.5866165161133	1311.068725585938	-1227.236328125	-75.23217010498048	1270.562744140625	-1270.878173828125	-134.1473999023438	1234.318359375	-1140.80517578125	-152.939926147461	1163.717041015625	-1184.042724609375	-387.6201171875001	980.7735595703127	-1145.0205078125	-81.31397247314455	1040.825805664063	-1203.619262695313	-99.65184020996097	1145.712280273438	-1320.440185546875	35.39311218261719	1094.69287109375	-1417.067138671875	68.29656982421876	1097.71923828125	-1379.66064453125	99.45698547363284	1070.916015625	-1425.405639648438	151.2438354492188	1035.093994140625	-1432.251342773438	134.0141906738282	980.6228027343752	-1399.47705078125	425.0577087402345	993.8389892578127	-1347.38134765625	428.7107238769532	1017.956115722656	-1418.670288085938	515.8384399414064	1004.580810546875	-1343.669189453125	-63.29084396362306	1111.99267578125	-1073.208251953125	73.40266418457033	1037.429931640625	-990.306335449219	104.5110855102539	1049.618286132813	-1025.669067382813	138.4637145996094	1010.482727050781	-993.7963867187502	197.5584411621094	989.0364379882815	-1007.563049316406	175.9773559570313	928.4671630859377	-1046.40234375	452.6999816894532	1005.118957519531	-1158.812255859375	463.7583312988282	965.2823486328127	-1093.921752929688	546.1309204101564	988.8796997070315	-1169.160766601563	-371.7761230468751	768.0454711914065	-1238.173095703125	-384.2718811035157	741.9649047851564	-1022.712036132813	-512.6735839843751	880.9475097656252	-1129.6943359375	-540.0562133789064	863.4381103515627	-1159.687133789063	-535.4647827148439	855.4932250976565	-1103.56982421875	-346.9273681640626	591.4270629882814	-1295.933471679688	-261.4254455566407	582.2625122070314	-1293.052612304688	-235.9299926757813	620.9125976562501	-1291.910034179688	-231.4806671142579	534.5661010742189	-1274.401977539063	-126.801010131836	477.0045776367189	-1241.5087890625	-152.4689331054688	471.0340881347657	-1124.763793945313	-164.516342163086	271.4742126464844	-1176.49951171875	-235.3750000000001	261.6271362304688	-1230.014404296875	-203.1494750976563	240.7093811035157	-1205.3662109375	-240.8975982666016	172.6646118164063	-1167.10791015625	-339.4570617675782	121.9882125854492	-1195.369262695313	-312.8770446777344	131.4558563232422	-1107.694091796875	-413.2633666992189	93.35334777832033	-1150.1728515625	-199.5078582763672	52.15704727172853	-1127.622802734375	-198.4067687988282	54.119930267334	-1174.215942382813	-251.5360412597657	44.95428466796876	-1223.161865234375	-504.7737731933595	498.7442932128907	-971.816833496094	-488.9871215820314	434.3439941406251	-981.5263671875002	-458.6161193847657	426.9040527343751	-991.4549560546877	-541.0378417968751	369.6008605957032	-992.0695800781252	-573.8927001953126	272.2839965820313	-1004.142028808594	-600.7947387695314	282.0397644042969	-1130.78857421875	-747.7390747070314	213.702377319336	-1012.963928222656	-813.757263183594	290.6716918945313	-966.9431762695315	-822.2033691406252	246.0935974121094	-982.0800781250002	-874.839782714844	237.6847381591797	-1008.293273925781	-985.752868652344	294.2640075683594	-965.3212890625002	-981.164245605469	288.7437438964844	-1056.521850585938	-1028.464599609375	368.0330200195313	-1008.99609375	-1056.619873046875	153.1153717041016	-1053.949951171875	-1053.922485351563	145.9033813476563	-1013.083801269531	-1075.919799804688	181.0353393554688	-957.2546997070315	nan	nan	nan	nan	nan	nan	
883	4.41	52.64053344726564	1310.95947265625	-1226.893188476563	-75.16226959228517	1270.56494140625	-1270.657592773438	-133.7789306640625	1234.011596679688	-1140.617919921875	-152.9184875488282	1163.613525390625	-1183.870483398438	-387.6394348144532	980.8029785156252	-1144.933227539063	-81.30345916748048	1040.61181640625	-1203.640380859375	-100.4757614135742	1146.21875	-1320.508178710938	35.29367446899415	1094.836669921875	-1417.069702148438	68.13450622558595	1097.935180664063	-1379.64404296875	99.32077789306643	1071.137329101563	-1425.302856445313	150.7804260253907	1035.707763671875	-1432.341918945313	134.0238800048828	981.0125122070315	-1399.579833984375	425.3084716796876	994.2856445312502	-1347.460327148438	428.711883544922	1018.601379394531	-1418.8505859375	515.8424682617189	1005.017272949219	-1343.970458984375	-63.12467575073244	1111.892578125	-1073.296264648438	73.59612274169923	1037.301147460938	-990.1400146484377	104.6729736328125	1049.564208984375	-1025.657470703125	138.4953002929688	1010.197509765625	-993.8072509765627	197.6833801269532	988.9727783203127	-1007.42041015625	176.2396392822266	928.3864746093752	-1046.539184570313	453.489715576172	1006.189880371094	-1158.143676757813	463.9771728515626	965.4917602539065	-1093.567016601563	546.6173706054689	989.358825683594	-1168.201171875	-371.8065185546876	768.2413330078127	-1238.260498046875	-384.3703918457032	741.9016723632814	-1022.813598632813	-512.5639038085939	881.2994384765627	-1129.669799804688	-540.1335449218751	863.5259399414065	-1159.792724609375	-535.6807861328126	855.660583496094	-1103.63671875	-346.9821166992188	591.5451049804689	-1295.997192382813	-261.4677429199219	582.4027099609376	-1292.965576171875	-236.009262084961	621.0144042968751	-1291.831665039063	-231.5017089843751	534.6159667968751	-1274.28515625	-126.3298645019532	476.7534790039064	-1241.368530273438	-152.5132904052735	470.970916748047	-1124.741455078125	-164.568099975586	271.5674743652344	-1176.312377929688	-236.4985656738282	261.9250183105469	-1230.232421875	-203.2019805908204	240.7408294677735	-1205.277465820313	-240.9285736083985	172.7518157958985	-1167.04248046875	-339.4971008300782	121.9589462280274	-1195.308959960938	-313.0679016113282	131.4969787597657	-1107.582153320313	-413.2464294433595	93.25219726562501	-1150.1318359375	-199.5150451660157	52.1640090942383	-1127.515258789063	-198.4088287353516	54.18056106567384	-1174.157958984375	-251.5776519775391	45.05119705200196	-1223.1630859375	-505.2770385742189	498.9223632812501	-971.9693603515627	-489.5672302246095	434.3327941894532	-981.632507324219	-458.9848022460939	426.7963867187501	-991.7312011718752	-541.5501098632814	369.7407836914063	-992.407165527344	-574.9035034179689	272.4163513183594	-1004.529663085938	-601.2104492187501	282.1770629882813	-1131.310791015625	-748.4467163085939	214.4999389648438	-1013.193786621094	-814.2891235351565	291.3836975097657	-967.8134765625002	-822.7833251953127	247.1361694335938	-982.8506469726565	-875.4505615234377	238.7942352294922	-1008.999328613281	-986.1956176757815	295.7617492675782	-966.178894042969	-981.5615234375002	289.8559875488282	-1057.39013671875	-1028.956298828125	369.2454528808594	-1009.998229980469	-1056.955078125	154.3230895996094	-1054.655029296875	-1053.982055664063	147.3234100341797	-1013.943237304688	-1076.1103515625	182.1580963134766	-957.9547119140627	nan	nan	nan	nan	nan	nan	
884	4.415	52.67184829711915	1310.82080078125	-1226.4296875	-75.08177185058595	1270.573852539063	-1270.43603515625	-133.8702392578125	1234.001586914063	-1140.347534179688	-152.8219146728516	1163.526611328125	-1183.744384765625	-387.6105957031251	980.7618408203127	-1144.841186523438	-81.20578002929689	1040.360595703125	-1203.670654296875	-100.5578842163086	1146.327270507813	-1320.4853515625	35.5306739807129	1094.781494140625	-1416.985595703125	67.30267333984376	1098.591552734375	-1379.85009765625	99.35248565673831	1071.465942382813	-1425.35107421875	150.7637176513672	1036.00146484375	-1432.3427734375	133.8473815917969	981.5107421875002	-1399.681640625	425.6458129882814	994.3013916015627	-1347.177612304688	428.3982849121095	1019.830688476563	-1418.958740234375	515.8671264648439	1005.942749023438	-1344.201049804688	-63.02370452880861	1111.874145507813	-1073.261474609375	73.83911895751955	1037.39892578125	-990.024353027344	105.0815582275391	1049.581909179688	-1025.451782226563	138.7170104980469	1010.316589355469	-993.6024169921877	197.8456268310547	989.0111083984377	-1007.323547363281	176.7140197753907	928.3152465820315	-1046.869506835938	454.4710998535157	1007.032409667969	-1157.28076171875	464.3349914550782	965.4549560546877	-1093.156372070313	547.5354003906251	989.954284667969	-1167.501220703125	-371.8480834960938	768.3005371093752	-1238.369384765625	-384.4806213378907	741.8445434570314	-1022.903259277344	-512.7808227539064	881.3748168945315	-1129.876953125	-540.1406860351564	863.6121826171877	-1159.879272460938	-535.7720947265626	855.7099609375002	-1103.756103515625	-346.9939575195313	591.6830444335939	-1296.065673828125	-261.4631958007813	582.4833984375001	-1292.907592773438	-235.9772644042969	621.0611572265626	-1291.752197265625	-231.4518127441407	534.8281250000001	-1274.240112304688	-126.9236297607422	477.0773010253907	-1241.287231445313	-152.6567535400391	471.0775756835939	-1124.615112304688	-164.5873565673828	271.5528869628907	-1176.285034179688	-236.5802154541016	261.9204101562501	-1230.1689453125	-203.5029296875001	240.6288299560547	-1205.15576171875	-240.9734802246094	172.6836090087891	-1167.07861328125	-339.4864501953126	121.8576431274414	-1195.248779296875	-313.0844726562501	131.5005493164063	-1107.547729492188	-413.2271423339845	93.2664260864258	-1150.072998046875	-199.6028289794922	52.23329925537111	-1127.467651367188	-198.4120178222657	54.18029403686525	-1174.143310546875	-251.6099853515626	45.00835037231446	-1223.130493164063	-505.7845458984376	498.9671325683595	-972.1711425781252	-489.9120178222657	434.3367919921876	-981.8360595703127	-459.3489074707032	426.8848571777345	-991.9494628906252	-542.0031127929689	369.6331787109376	-992.6477050781252	-575.3701782226564	272.6992797851563	-1004.975341796875	-601.6214599609376	282.3365173339844	-1131.796875	-749.1347656250001	215.2177886962891	-1014.078430175781	-815.2393188476565	291.6336669921876	-968.5601806640627	-823.1447753906252	247.7304687500001	-983.6665039062502	-875.8377075195315	239.2283630371094	-1010.317016601563	-986.8175048828127	296.8072509765626	-967.1824951171877	-981.9791259765627	290.7520141601563	-1058.2470703125	-1029.45751953125	370.2212219238282	-1011.166320800781	-1057.425537109375	155.2002563476563	-1055.36572265625	-1054.470947265625	148.3644104003907	-1014.289733886719	-1075.78759765625	184.0569915771485	-958.214538574219	nan	nan	nan	nan	nan	nan	
885	4.42	52.6155128479004	1310.745361328125	-1226.063110351563	-74.95536041259767	1270.595947265625	-1270.259521484375	-133.7984924316407	1233.840209960938	-1140.130859375	-152.7615966796875	1163.445922851563	-1183.600463867188	-387.5383300781251	980.770935058594	-1144.72998046875	-80.95531463623048	1040.285522460938	-1203.70166015625	-100.6939697265625	1146.425537109375	-1320.465576171875	35.1656608581543	1095.203125	-1416.93994140625	67.17078399658205	1098.88037109375	-1379.8525390625	98.96521759033206	1072.005249023438	-1425.40966796875	150.8330688476563	1036.300903320313	-1432.303344726563	134.0234069824219	981.785095214844	-1399.6171875	425.6742553710939	994.453308105469	-1347.014770507813	428.2952575683595	1020.355102539063	-1419.021850585938	515.8874511718751	1006.563354492188	-1344.357788085938	-62.57871246337892	1112.234375	-1072.913940429688	73.90262603759767	1037.145141601563	-989.9736938476565	105.3411178588867	1049.520385742188	-1025.3173828125	138.7256927490235	1009.959838867188	-993.6649169921877	198.0603332519532	989.6043701171877	-1007.588928222656	177.2061614990235	928.2802734375002	-1047.221801757813	455.0604858398439	1007.807495117188	-1156.4755859375	464.6422119140626	965.9868164062502	-1092.861572265625	548.1253051757814	990.573913574219	-1166.548461914063	-371.7629699707032	768.300231933594	-1238.380493164063	-384.620086669922	741.7751464843751	-1023.019287109375	-512.5461425781251	881.3435668945315	-1129.758666992188	-540.0333251953126	863.6348876953127	-1159.904418945313	-535.8105468750001	855.7864379882815	-1103.812133789063	-346.9327087402344	591.6810302734376	-1296.052734375	-261.3962402343751	582.5700683593751	-1292.911376953125	-235.9557800292969	621.1184692382814	-1291.696655273438	-231.4479370117188	534.8067626953126	-1274.238403320313	-126.9684677124024	477.0336303710939	-1241.172241210938	-152.7241363525391	471.0979919433595	-1124.521606445313	-164.5899810791016	271.4089965820313	-1176.15576171875	-236.5542144775391	261.9100646972657	-1230.155395507813	-203.541488647461	240.5934295654297	-1205.153930664063	-240.9803314208985	172.6401824951172	-1167.078979492188	-339.5716857910157	121.8655700683594	-1195.279418945313	-312.9702758789063	131.2408752441407	-1107.494018554688	-413.2467346191407	93.20050048828126	-1150.063842773438	-199.6782836914063	52.23068237304689	-1127.46533203125	-198.4448394775391	54.2338333129883	-1174.173095703125	-251.6126403808594	45.03664016723634	-1223.124145507813	-506.1987304687501	498.9528808593751	-972.355163574219	-490.2777709960939	434.273895263672	-982.220642089844	-459.9893798828126	426.6062927246095	-992.4336547851565	-542.6517944335939	369.9826049804688	-992.919372558594	-576.0146484375001	272.8019714355469	-1005.450439453125	-602.2753295898439	282.8609619140626	-1132.050170898438	-749.2153320312501	216.5902404785157	-1013.677734375	-815.5024414062502	292.8974914550782	-969.0964965820315	-824.0169677734377	248.2076416015626	-984.4938964843752	-876.1778564453127	240.0569915771485	-1011.525268554688	-987.0405883789065	297.4942626953126	-968.3670043945315	-982.3016357421877	291.5558166503907	-1059.100708007813	-1030.121337890625	371.2292480468751	-1012.227172851563	-1057.638671875	155.2470245361328	-1056.036987304688	-1054.8701171875	149.3592376708985	-1014.863525390625	-1076.30517578125	184.966537475586	-958.9794921875002	nan	nan	nan	nan	nan	nan	
